<svg id="agency-reports" xmlns="http://www.w3.org/2000/svg" viewBox="0 0 26.6 40">
  <defs>
    <style>
      .cls-1 {
        fill: #004760;
      }
    </style>
  </defs>
  <path id="Path_868" data-name="Path 868" class="cls-1" d="M0,0H26.6V40H0ZM1.307,38.693H25.26V4.054H1.307C1.307,15.678,1.307,27.136,1.307,38.693Z"/>
  <path id="Path_869" data-name="Path 869" class="cls-1" d="M15.9,51.94V24h6.5V51.94Z" transform="translate(-10.573 -15.96)"/>
  <path id="Path_870" data-name="Path 870" class="cls-1" d="M43.6,55.9h6.231c.369.838.3,1.34-.8,1.307-1.575-.034-3.116.034-4.69-.034-.4-.034-.771-.5-1.139-.771Z" transform="translate(-28.728 -37.173)"/>
  <path id="Path_871" data-name="Path 871" class="cls-1" d="M43.7,63.9h6.265c.335.9.168,1.34-.871,1.307-1.575-.034-3.116.034-4.69-.034-.4-.034-.737-.536-1.106-.8C43.434,64.2,43.568,64.068,43.7,63.9Z" transform="translate(-28.794 -42.493)"/>
  <path id="Path_872" data-name="Path 872" class="cls-1" d="M50.268,72.536c-.369.268-.737.737-1.139.771a36.513,36.513,0,0,1-4.69,0c-.4-.034-.771-.5-1.139-.771.1-.134.168-.3.268-.436h6.3C49.967,72.234,50.134,72.368,50.268,72.536Z" transform="translate(-28.794 -47.946)"/>
  <path id="Path_873" data-name="Path 873" class="cls-1" d="M43.6,79.9h6.231c.369.871.268,1.34-.8,1.307-1.575-.034-3.116.034-4.69-.034-.4-.034-.771-.5-1.139-.771Z" transform="translate(-28.728 -53.133)"/>
  <path id="Path_874" data-name="Path 874" class="cls-1" d="M43.6,87.9h6.231c.4.871.268,1.34-.8,1.307-1.575-.034-3.116.034-4.69-.034-.4-.034-.771-.5-1.139-.771Z" transform="translate(-28.728 -58.453)"/>
  <path id="Path_875" data-name="Path 875" class="cls-1" d="M50.042,97.1H43.778c-.335-.871-.2-1.34.871-1.307,1.575.034,3.116-.033,4.69.034.4.034.737.5,1.139.8A2.893,2.893,0,0,0,50.042,97.1Z" transform="translate(-29.004 -63.703)"/>
  <path id="Path_876" data-name="Path 876" class="cls-1" d="M43.2,104.588c.335-.3.637-.838.972-.838a41.911,41.911,0,0,1,5.025,0c.369.034.67.5,1.039.8-.1.134-.168.268-.268.4h-6.3A2.529,2.529,0,0,1,43.2,104.588Z" transform="translate(-28.728 -68.943)"/>
</svg>
