<svg xmlns="http://www.w3.org/2000/svg" viewBox="0 0 40 39.993">
  <defs>
    <style>
      .cls-1 {
        fill: #004760;
      }
    </style>
  </defs>
  <g id="Agency_Home_Icon" data-name="Agency Home Icon" transform="translate(0 -0.054)">
    <g id="Group_1085" data-name="Group 1085" transform="translate(0 0.054)">
      <g id="Group_1084" data-name="Group 1084">
        <path id="Path_789" data-name="Path 789" class="cls-1" d="M.625,594.07a.625.625,0,1,1,0-1.25H39.372a.625.625,0,0,1,0,1.25Z" transform="translate(0 -554.077)"/>
        <path id="Path_790" data-name="Path 790" class="cls-1" d="M2.635,13.8H37.467L20.05,1.442,2.635,13.8Zm36.79,1.25H.677v0a.622.622,0,0,1-.361-1.13L19.681.176l.007-.005h0a.624.624,0,0,1,.723,0L39.746,13.891a.625.625,0,0,1-.32,1.161Z" transform="translate(-0.05 -0.054)"/>
        <path id="Path_791" data-name="Path 791" class="cls-1" d="M296.748,77.738a.623.623,0,1,1,.688-1.039l5.625,3.749a.623.623,0,0,1-.688,1.039Z" transform="translate(-277.092 -71.593)"/>
        <path id="Path_792" data-name="Path 792" class="cls-1" d="M26.543,555.961a.625.625,0,1,1,0-1.25H61.9a.625.625,0,1,1,0,1.25Z" transform="translate(-24.224 -518.459)"/>
        <path id="Path_793" data-name="Path 793" class="cls-1" d="M52.3,517.711a.625.625,0,1,1,0-1.25H84.3a.625.625,0,0,1,0,1.25Z" transform="translate(-48.299 -482.709)"/>
        <path id="Path_794" data-name="Path 794" class="cls-1" d="M459.082,249.295a.625.625,0,0,1,.625-.625h3.753a.625.625,0,0,1,.625.625v15a.625.625,0,0,1-.625.625h-3.753a.625.625,0,0,1-.625-.625v-15Z" transform="translate(-429.077 -232.421)"/>
        <path id="Path_795" data-name="Path 795" class="cls-1" d="M216.282,76.648a.623.623,0,0,1,.694,1.035l-5.626,3.751a.623.623,0,0,1-.694-1.035Z" transform="translate(-196.629 -71.543)"/>
        <path id="Path_796" data-name="Path 796" class="cls-1" d="M76.38,249.295A.625.625,0,0,1,77,248.67h3.753a.625.625,0,0,1,.625.625v15a.625.625,0,0,1-.625.625H77.006a.625.625,0,0,1-.625-.625v-15Z" transform="translate(-71.388 -232.421)"/>
        <path id="Path_805" data-name="Path 805" class="cls-1" d="M76.38,249.295A.625.625,0,0,1,77,248.67h3.753a.625.625,0,0,1,.625.625v15a.625.625,0,0,1-.625.625H77.006a.625.625,0,0,1-.625-.625v-15Z" transform="translate(-62.98 -232.421)"/>
        <path id="Path_806" data-name="Path 806" class="cls-1" d="M76.38,249.295A.625.625,0,0,1,77,248.67h3.753a.625.625,0,0,1,.625.625v15a.625.625,0,0,1-.625.625H77.006a.625.625,0,0,1-.625-.625v-15Z" transform="translate(-54.572 -232.421)"/>
      </g>
    </g>
  </g>
</svg>
