<svg xmlns="http://www.w3.org/2000/svg" viewBox="0 0 34.736 40">
  <defs>
    <style>
      .cls-1 {
        fill: #004760;
      }
    </style>
  </defs>
  <g id="award-medal-blue" transform="translate(0.1)">
    <path id="Path_809" data-name="Path 809" class="cls-1" d="M25.314,37.272H9.343a.684.684,0,0,1-.712-.7c-.008-.876-.008-1.744,0-2.62a.668.668,0,0,1,.657-.688c.078-.008.156,0,.235,0H41.294a.678.678,0,0,1,.7.7c.008.876.008,1.744,0,2.62a.672.672,0,0,1-.743.7H37.4C33.363,37.272,29.343,37.272,25.314,37.272Zm-.008-1.353H40.363c.282,0,.289-.008.289-.282V35c0-.383,0-.383-.383-.383H10.164c-.125-.008-.18.047-.18.172v.954c0,.141.063.188.188.18H25.307Z" transform="translate(-8.043 -30.654)"/>
    <path id="Path_810" data-name="Path 810" class="cls-1" d="M-.092,0H34.346c.282,0,.282,0,.282.289v.821c0,.133-.055.2-.188.188H.283C-.1,1.3-.1,1.3-.1.915-.092.61-.092.313-.092,0Z" transform="translate(0)"/>
    <path id="Path_811" data-name="Path 811" class="cls-1" d="M34.9,101.776c0-.383,0-.383-.383-.383H.388c-.141-.008-.2.055-.2.2v.837c0,.321,0,.321.321.321H13.732c.1,0,.2.008.336.016a4.032,4.032,0,0,0,.266,4.38,13.216,13.216,0,0,0-8.4,6.414,13.323,13.323,0,0,0,3.645,17.262,12.942,12.942,0,0,0,7.978,2.644,13.382,13.382,0,0,0,13.023-10.5,12.858,12.858,0,0,0-.845-8.267,13.275,13.275,0,0,0-8.948-7.54.242.242,0,0,1,.016-.078c.039-.063.07-.125.11-.188a3.9,3.9,0,0,0,.235-3.856c-.125-.266-.117-.282.172-.282h13.2a1.908,1.908,0,0,1,.211,0c.125.008.172-.047.172-.172C34.9,102.307,34.9,102.042,34.9,101.776ZM15,104.013a2.4,2.4,0,0,1,.688-1.134.437.437,0,0,1,.289-.117c.524-.016,1.04-.008,1.564-.008.43,0,.86.031,1.291-.008a.826.826,0,0,1,.813.407,2.619,2.619,0,0,1,.446,2.331,2.536,2.536,0,0,1-.829,1.291.493.493,0,0,1-.282.078c-.806-.016-1.611-.031-2.417-.055a.642.642,0,0,0-.172.016.67.67,0,0,1-.8-.258A2.631,2.631,0,0,1,15,104.013Zm5.851,14.079h2.738a.693.693,0,0,1,.673.313.676.676,0,0,1-.2.915c-.876.641-1.752,1.267-2.62,1.9-.2.149-.407.305-.618.446-.11.07-.125.149-.086.282.415,1.251.813,2.511,1.22,3.77a.694.694,0,0,1-.227.821.683.683,0,0,1-.837-.031c-.688-.5-1.377-1-2.073-1.5-.383-.282-.774-.555-1.15-.837a.217.217,0,0,0-.3.016c-.587.43-1.181.86-1.768,1.283-.477.352-.954.7-1.439,1.04a.672.672,0,0,1-.837.023.654.654,0,0,1-.219-.782c.4-1.259.806-2.511,1.22-3.77a.25.25,0,0,0-.1-.329c-.7-.508-1.4-1.017-2.1-1.525-.368-.266-.735-.532-1.1-.806a.67.67,0,0,1-.282-.751.657.657,0,0,1,.665-.477c.665-.008,1.33,0,1.995,0h1.955a.271.271,0,0,0,.313-.219c.352-1.1.712-2.19,1.072-3.285.055-.164.1-.336.164-.5a.687.687,0,0,1,.649-.477.673.673,0,0,1,.634.469c.141.407.266.813.4,1.22.282.868.571,1.744.853,2.612.039.133.125.164.25.164C20.067,118.092,20.458,118.092,20.849,118.092Z" transform="translate(-0.269 -93.461)"/>
  </g>
</svg>
