<svg xmlns="http://www.w3.org/2000/svg" viewBox="0 0 30.894 43.7">
  <defs>
    <style>
      .cls-1 {
        fill: none;
        stroke: #004760;
        stroke-width: 1.5px;
      }

      .cls-2 {
        fill: #004760;
      }
    </style>
  </defs>
  <g id="grant-pages" transform="translate(4.287 3.617)">
    <path id="Path_834" data-name="Path 834" class="cls-1" d="M0,36.083H-3.537V-3.867h26.1V9.787" transform="translate(0 1)"/>
    <path id="Path_816" data-name="Path 816" class="cls-2" d="M26.507,40.084H0V.122c4.373,0,8.68.1,13.02-.033a5.906,5.906,0,0,1,5.074,2.07c2.47,2.7,5.175,5.208,7.712,7.845a2.846,2.846,0,0,1,.768,1.7q.05,13.921.033,27.843C26.607,39.65,26.541,39.816,26.507,40.084Zm-1.269-28.01H14.522V1.525H1.369V38.681h23.9C25.239,29.835,25.239,21.121,25.239,12.074Z" transform="translate(0 0)"/>
    <path id="Path_838" data-name="Path 838" class="cls-2" d="M4.307-13.418a2.394,2.394,0,0,1,1.021.543,1.825,1.825,0,0,1,.557.9,1.653,1.653,0,0,1-.072,1.042,1.918,1.918,0,0,1-.846.92,2.792,2.792,0,0,1-1.341.359v.841a.253.253,0,0,1-.093.2A.354.354,0,0,1,3.3-8.53h-.66A.354.354,0,0,1,2.4-8.609a.253.253,0,0,1-.093-.2v-.841a3.211,3.211,0,0,1-1.795-.526.346.346,0,0,1-.124-.21.241.241,0,0,1,.1-.228l.7-.6a.5.5,0,0,1,.2-.07.294.294,0,0,1,.217.053,1.4,1.4,0,0,0,.7.175H3.688a.631.631,0,0,0,.423-.149.473.473,0,0,0,.175-.377.444.444,0,0,0-.124-.3.634.634,0,0,0-.309-.193l-2.125-.526a2.555,2.555,0,0,1-1.176-.631A1.768,1.768,0,0,1,0-14.276a1.734,1.734,0,0,1,.248-1.042,2.1,2.1,0,0,1,.825-.771,2.481,2.481,0,0,1,1.2-.289h.041v-.841a.253.253,0,0,1,.093-.2.354.354,0,0,1,.237-.079H3.3a.354.354,0,0,1,.237.079.253.253,0,0,1,.093.2v.841a3.112,3.112,0,0,1,1.774.526.322.322,0,0,1,.144.21.206.206,0,0,1-.1.21l-.7.613a.5.5,0,0,1-.2.07.349.349,0,0,1-.217-.035,1.3,1.3,0,0,0-.7-.193H2.244a.631.631,0,0,0-.423.149.473.473,0,0,0-.175.377.444.444,0,0,0,.124.3.634.634,0,0,0,.309.193Z" transform="translate(4 21.083)"/>
    <path id="Path_839" data-name="Path 839" class="cls-2" d="M15.8,48.7H31.312c.4.865.266,1.3-.8,1.3-4.66-.033-9.321,0-13.981-.033-.366,0-.766-.5-1.132-.766C15.533,49,15.666,48.866,15.8,48.7Z" transform="translate(-10.367 -31.617)"/>
    <path id="Path_840" data-name="Path 840" class="cls-2" d="M15.8,56.7H31.312c.366.865.266,1.3-.8,1.3-4.66-.033-9.321,0-13.981-.033-.366,0-.766-.5-1.132-.766C15.533,57,15.666,56.866,15.8,56.7Z" transform="translate(-10.367 -36.954)"/>
    <path id="Path_841" data-name="Path 841" class="cls-2" d="M15.3,65.3c.333-.266.666-.766,1.032-.8,2.1-.067,4.228-.067,6.325,0,.333,0,.632.533.965.832a3.538,3.538,0,0,1-.3.366h-7.59A1.629,1.629,0,0,1,15.3,65.3Z" transform="translate(-10.3 -42.124)"/>
  </g>
</svg>
