<svg id="Group_1339" data-name="Group 1339" xmlns="http://www.w3.org/2000/svg" viewBox="0 0 33.473 40">
  <defs>
    <style>
      .cls-1 {
        fill: #004760;
      }
    </style>
  </defs>
  <path id="Path_877" data-name="Path 877" class="cls-1" d="M0,14.035A13.873,13.873,0,0,1,14.069,0a13.874,13.874,0,0,1,14,14.1A13.9,13.9,0,0,1,13.935,28.07,13.885,13.885,0,0,1,0,14.035ZM6.015,4.344q8.872,8.872,17.711,17.744a12.432,12.432,0,0,0-1.1-17.31A12.4,12.4,0,0,0,6.015,4.344ZM21.988,23.759,4.277,6.048a12.469,12.469,0,0,0,1.3,17.377C10.192,27.736,17.811,27.769,21.988,23.759Z"/>
  <path id="Path_878" data-name="Path 878" class="cls-1" d="M26.264,2.671C26.865,2.136,27.5,1.6,28.269.9a18.753,18.753,0,0,1,5.48,16.174c-1.1,7.92-5.547,13.434-13.166,15.973C13.2,35.486,6.581,33.715.7,28.436c.735-.635,1.37-1.2,2.105-1.838a16.453,16.453,0,0,0,13.033,4.678A16.229,16.229,0,0,0,26.565,26.1C31.644,20.85,33.783,11.025,26.264,2.671Z" transform="translate(-0.466 -0.599)"/>
  <path id="Path_879" data-name="Path 879" class="cls-1" d="M35.433,108.2v3.843H22.2V108.2Z" transform="translate(-14.781 -72.043)"/>
</svg>
