<svg xmlns="http://www.w3.org/2000/svg" viewBox="0 0 40 40.033">
  <defs>
    <style>
      .cls-1 {
        fill: #004760;
      }
    </style>
  </defs>
  <g id="Group_1337" data-name="Group 1337" transform="translate(0.04 -0.057)">
    <path id="Path_866" data-name="Path 866" class="cls-1" d="M.046,20H19.831V.251C25.413-.965,33.713,3.686,37.255,9.84a20.322,20.322,0,0,1-2.4,23.614,20.167,20.167,0,0,1-23.077,4.9C4.411,34.992-.777,27.013.046,20Zm38.1,1.61H1.62c.215,9.553,9.517,17.531,19.535,16.923C30.207,37.961,38.9,29.3,38.15,21.611Zm-16.673-20V19.965H37.649a4.474,4.474,0,0,0,.68-.107C38.865,10.591,30.457,1.861,21.477,1.611Z" transform="translate(0 0)"/>
    <path id="Path_867" data-name="Path 867" class="cls-1" d="M.7,17.38C1.237,9.33,9.179,1.351,17.551.6V17.38Z" transform="translate(-0.475 -0.349)"/>
  </g>
</svg>
