<svg xmlns="http://www.w3.org/2000/svg" viewBox="0 0 40 39.978">
  <defs>
    <style>
      .cls-1 {
        fill: #004760;
      }
    </style>
  </defs>
  <g id="init-partners" transform="translate(0.1)">
    <g id="Group_1329" data-name="Group 1329" transform="translate(-0.1)">
      <path id="Path_845" data-name="Path 845" class="cls-1" d="M109.645,120.739c-1.032-3.864,0-7.486,3.469-8.847.307-.11.593-.242.9-.351-1.844-2.9-1.756-5.225.242-6.937a4.593,4.593,0,0,1,6.1.132c1.888,1.734,1.932,4.171.11,6.784.5.22,1.01.4,1.493.637a6.6,6.6,0,0,1,3.293,4.435v4.171C120.029,120.739,114.848,120.739,109.645,120.739Zm1.01-1.273c3.8,0,7.552.022,11.328,0,2.261-.022,2,.417,1.976-2.042a4.537,4.537,0,0,0-4.435-4.632c-1.559-.066-3.139-.044-4.7.022a4.3,4.3,0,0,0-1.559.4C111.05,114.219,110.127,116.414,110.654,119.466Zm9.989-11.328a3.451,3.451,0,0,0-3.315-3.425,3.4,3.4,0,0,0-3.447,3.381,3.354,3.354,0,0,0,3.337,3.359A3.437,3.437,0,0,0,120.643,108.138Z" transform="translate(-85.254 -80.783)"/>
      <path id="Path_846" data-name="Path 846" class="cls-1" d="M-.078,116.531a6.593,6.593,0,0,1,3.271-4.413c.483-.241.988-.417,1.493-.637-1.822-2.788-1.734-5.225.241-6.915a4.564,4.564,0,0,1,6.081.11c1.91,1.756,1.976,4.193.088,6.828,2.327.7,4.105,2.086,4.523,4.5a22.763,22.763,0,0,1-.132,4.72H-.1C-.078,119.3-.078,117.914-.078,116.531Zm14.731,2.9c0-.878.044-1.581,0-2.261a4.62,4.62,0,0,0-4.544-4.435c-1.537-.044-3.074-.022-4.588.022a3.807,3.807,0,0,0-1.559.4c-2.2,1.032-2.854,2.876-2.788,5.137.022.79.154,1.164,1.076,1.142,3.535-.044,7.091-.022,10.626-.022C13.424,119.429,13.972,119.429,14.653,119.429Zm-6.762-8.013a3.37,3.37,0,0,0,.11-6.74,3.371,3.371,0,1,0-.11,6.74Z" transform="translate(0.1 -80.746)"/>
      <path id="Path_847" data-name="Path 847" class="cls-1" d="M63.8,0c.483.176.966.329,1.427.549a4.586,4.586,0,0,1,1.625,6.828c-.154.2-.307.4-.549.681.351.132.659.263.944.373a5.774,5.774,0,0,1,3.776,5.181c.044.922,0,1.822.022,2.744,0,.637-.285.944-.922.944-4.654,0-9.286,0-13.941-.022-.307,0-.878-.373-.878-.571a22.959,22.959,0,0,1,.461-5.071A4.975,4.975,0,0,1,59.23,8.386c.241-.088.439-.2.724-.329a4.7,4.7,0,0,1-.724-5.818A5.415,5.415,0,0,1,62.479,0Zm6.081,15.982c0-.615.022-1.207,0-1.778A4.734,4.734,0,0,0,65,9.265q-1.811-.066-3.622,0c-3.622.11-5.774,3.139-4.764,6.718ZM63.16,7.991A3.276,3.276,0,0,0,66.5,4.676a3.359,3.359,0,1,0-6.718.044A3.277,3.277,0,0,0,63.16,7.991Z" transform="translate(-43.138)"/>
    </g>
    <path id="Path_848" data-name="Path 848" class="cls-1" d="M32.025,49.755h0l-.461.066a.66.66,0,0,1-.724-.571.648.648,0,0,1,.571-.724,2.431,2.431,0,0,1,.417-.044.665.665,0,0,1,.746.571A.605.605,0,0,1,32.025,49.755Zm-2.613.176H29.3a3.242,3.242,0,0,1-.461-.022.659.659,0,0,1,.044-1.317,2.656,2.656,0,0,1,.417.022.66.66,0,0,1,.659.659A.647.647,0,0,1,29.412,49.931Zm-2.634-.263h-.2c-.154-.022-.307-.066-.439-.088a.65.65,0,0,1,.263-1.273,2.823,2.823,0,0,1,.417.088.642.642,0,0,1-.044,1.273Zm18.9-12.645a.747.747,0,0,1-.22-.022.655.655,0,0,1-.483-.79c.022-.132.066-.285.088-.417a.663.663,0,0,1,1.3.285,2.568,2.568,0,0,1-.11.439A.679.679,0,0,1,45.68,37.022Zm.4-2.613h-.132a.661.661,0,0,1-.615-.7,2.657,2.657,0,0,0,.022-.417.648.648,0,1,1,1.3.066c0,.154-.022.307-.022.461A.581.581,0,0,1,46.075,34.409Zm-33.26,2.678a.642.642,0,0,1-.681-.5c-.044-.154-.066-.307-.11-.439a.663.663,0,0,1,1.3-.285c.022.132.066.285.088.417a.655.655,0,0,1-.483.79A.2.2,0,0,1,12.815,37.088Zm33.26-5.313h0a.667.667,0,0,1-.724-.593c-.022-.132-.022-.285-.044-.417v-.044a.662.662,0,1,1,1.317-.132v.044c.022.154.022.307.044.461A.667.667,0,0,1,46.075,31.775ZM12.42,34.5a.646.646,0,0,1-.7-.593v-.022a2.942,2.942,0,0,1-.022-.439.648.648,0,1,1,1.3-.066c0,.132.022.263.022.4A.7.7,0,0,1,12.42,34.5ZM45.658,29.14a.632.632,0,0,1-.7-.5,3.96,3.96,0,0,0-.11-.417.66.66,0,0,1,1.273-.351,3.21,3.21,0,0,1,.11.439.655.655,0,0,1-.483.79A.088.088,0,0,1,45.658,29.14ZM12.42,31.863h-.11a.661.661,0,0,1-.615-.7c.022-.154.022-.307.044-.461a.68.68,0,0,1,.724-.593.7.7,0,0,1,.593.724c-.022.132-.022.285-.044.417A.659.659,0,0,1,12.42,31.863Zm32.426-5.225a.679.679,0,0,1-.681-.4,3.11,3.11,0,0,0-.176-.4A.663.663,0,1,1,45.2,25.3a3.378,3.378,0,0,1,.176.417.663.663,0,0,1-.351.856A.249.249,0,0,1,44.846,26.638ZM12.815,29.25a.608.608,0,0,1-.2-.022.655.655,0,0,1-.483-.79c.044-.154.066-.307.11-.439a.66.66,0,0,1,1.273.351c-.044.132-.066.263-.11.417A.659.659,0,0,1,12.815,29.25Zm30.823-4.962A.7.7,0,0,1,43,23.981c-.066-.11-.154-.241-.22-.351a.667.667,0,1,1,1.12-.724c.088.132.154.263.241.4a.646.646,0,0,1-.22.9A.623.623,0,0,1,43.638,24.289ZM13.649,26.747a.747.747,0,0,1-.307-.044.645.645,0,0,1-.351-.856c.066-.132.11-.285.176-.417a.663.663,0,0,1,1.207.549c-.066.132-.11.263-.176.4A.635.635,0,0,1,13.649,26.747ZM42.1,22.159a.727.727,0,0,1-.571-.22,1.9,1.9,0,0,0-.285-.307.653.653,0,1,1,.966-.878c.11.11.2.22.307.351a.657.657,0,0,1-.066.922A.689.689,0,0,1,42.1,22.159ZM14.835,24.4a.861.861,0,0,1-.4-.088.651.651,0,0,1-.22-.9c.088-.132.154-.263.241-.4a.667.667,0,1,1,1.12.724,3.074,3.074,0,0,0-.22.351A.591.591,0,0,1,14.835,24.4Zm25.4-4.083a.633.633,0,0,1-.5-.154L39.4,19.9a.657.657,0,0,1,.812-1.032c.11.088.241.2.351.285a.639.639,0,0,1,.066.922A.582.582,0,0,1,40.236,20.315ZM16.394,22.269a.65.65,0,0,1-.549-1.076c.11-.11.2-.22.307-.351a.653.653,0,0,1,.966.878,3.926,3.926,0,0,1-.285.307A.534.534,0,0,1,16.394,22.269Zm21.69-3.513a.72.72,0,0,1-.417-.088c-.11-.066-.241-.154-.373-.22a.659.659,0,1,1,.659-1.142,3.818,3.818,0,0,1,.4.241.651.651,0,0,1,.22.9A.615.615,0,0,1,38.084,18.756ZM18.26,20.425a.651.651,0,0,1-.483-1.142c.11-.088.241-.2.351-.285a.655.655,0,0,1,.834,1.01l-.329.263A.8.8,0,0,1,18.26,20.425Zm17.475-2.854a.576.576,0,0,1-.329-.044c-.132-.044-.263-.11-.4-.154a.66.66,0,1,1,.483-1.229,3.378,3.378,0,0,1,.417.176.645.645,0,0,1,.351.856A.6.6,0,0,1,35.735,17.571Zm-15.346,1.3a.652.652,0,0,1-.4-1.207c.132-.088.263-.154.4-.241a.659.659,0,0,1,.659,1.142,1.9,1.9,0,0,0-.351.22A.814.814,0,0,1,20.389,18.866Zm2.349-1.186a.65.65,0,0,1-.659-.4.663.663,0,0,1,.351-.856c.132-.066.285-.11.417-.176a.665.665,0,0,1,.856.373.674.674,0,0,1-.373.856c-.132.044-.263.11-.4.154C22.87,17.658,22.8,17.658,22.738,17.68Z" transform="translate(-9.205 -12.565)"/>
  </g>
</svg>
