<svg xmlns="http://www.w3.org/2000/svg" viewBox="0 0 38 38.013">
  <defs>
    <style>
      .cls-1 {
        fill: #004760;
      }
    </style>
  </defs>
  <path id="legislation" class="cls-1" d="M19.043,0A19.006,19.006,0,1,0,38,19.1,19.035,19.035,0,0,0,19.043,0Zm4.508,25.389a5.174,5.174,0,0,1-3.056,1.7c-.231.051-.308.141-.308.372.013.462.013.925-.013,1.374a1.175,1.175,0,0,1-2.17.514,1.808,1.808,0,0,1-.18-.732c-.026-.449-.013-.9-.013-1.348,0-.026-.013-.039-.039-.1a6.917,6.917,0,0,1-2.491-.9,4.232,4.232,0,0,1-.552-.385,1.179,1.179,0,0,1-.244-1.657,1.142,1.142,0,0,1,1.631-.257,4.977,4.977,0,0,0,4.071.745,2.753,2.753,0,0,0,1.618-.963,1.79,1.79,0,0,0-.051-2.453,3.253,3.253,0,0,0-2.222-1.079,8.934,8.934,0,0,1-2.954-.514,4.869,4.869,0,0,1-2.967-2.915,4.256,4.256,0,0,1,1.567-4.867A5.4,5.4,0,0,1,17.5,10.9c.231-.039.321-.128.308-.372-.026-.411-.013-.809,0-1.22a1.183,1.183,0,1,1,2.363,0c.013.385.026.771,0,1.156-.026.283.09.385.36.437a6.1,6.1,0,0,1,2.633,1.13,1.192,1.192,0,0,1,.347,1.734,1.173,1.173,0,0,1-1.708.218,4.91,4.91,0,0,0-4.418-.565,2.521,2.521,0,0,0-1.323.976,1.793,1.793,0,0,0,.218,2.35,3.188,3.188,0,0,0,2.183,1.027,8.934,8.934,0,0,1,2.954.514,4.846,4.846,0,0,1,3.031,3.095A4.06,4.06,0,0,1,23.551,25.388Z" transform="translate(0.002 0.001)"/>
</svg>
