<svg xmlns="http://www.w3.org/2000/svg" viewBox="0 0 40 39.516">
  <defs>
    <style>
      .cls-1 {
        fill: #004760;
      }
    </style>
  </defs>
  <g id="map-pin" transform="translate(0 0.038)">
    <path id="Path_861" data-name="Path 861" class="cls-1" d="M0,39.478c1.588-3.318,3.063-6.466,4.566-9.614,2.975-6.231,5.262-5.644,7.4-5.644Q10.862,22.6,9.756,20.9C5.36,14.38,7.487,2.724,17.3.313A12.647,12.647,0,0,1,32.671,10.977a14.9,14.9,0,0,1-2.893,11.316c-.482.624-.879,1.3-1.5,2.24,1.018,0,4.372-1.165,6.641,3.058,1.342,1.921,4.11,9.194,5.071,11.491a1.726,1.726,0,0,1,0,.4Zm20.164-5.53c.4-.539.709-.936.993-1.333,2.637-3.772,5.218-7.6,7.912-11.372a13.432,13.432,0,0,0,2.24-11.117A11.335,11.335,0,0,0,17.044,1.618c-8.48,2.5-10.068,12.393-6.693,17.9C13.329,24.419,16.789,29.042,20.164,33.948ZM1.985,38.372H38.257c-.255-.6-.425-1.049-.652-1.5-1.276-2.694-2.459-6.009-3.743-8.083s-2.59-3.91-6.792-2.634c-1.787,2.723-4.155,6.037-6.026,8.732-.255.369-.539.681-.851,1.078a2.949,2.949,0,0,1-.4-.482c-1.531-2.212-3.091-4.424-4.623-6.636A18.963,18.963,0,0,0,12.538,25.7c-1.578-.154-3.791-.49-5.266,1.894s-3.216,6.1-4.889,9.591C2.24,37.55,2.155,37.918,1.985,38.372Z" transform="translate(0 0)"/>
    <path id="Path_862" data-name="Path 862" class="cls-1" d="M60.294,28.3a4.533,4.533,0,0,1,4.566,4.594,4.66,4.66,0,0,1-4.566,4.481A4.534,4.534,0,0,1,55.7,32.808,4.436,4.436,0,0,1,60.294,28.3Zm3.318,4.566a3.432,3.432,0,0,0-3.375-3.432,3.341,3.341,0,0,0-3.318,3.318,3.4,3.4,0,0,0,3.346,3.46A3.489,3.489,0,0,0,63.612,32.865Z" transform="translate(-39.903 -20.3)"/>
  </g>
</svg>
