<svg xmlns="http://www.w3.org/2000/svg" viewBox="0 0 39.655 40">
  <defs>
    <style>
      .cls-1 {
        fill: #faf8f0;
      }
    </style>
  </defs>
  <path id="open-book" class="cls-1" d="M19.847,2.95C25.977-1.839,32.989.958,39.655,0V36.7C33.1,37.816,25.785,34.866,19.808,40,16.973,37.51,13.64,36.782,10,36.9c-3.3.115-6.59.038-10,.038V.153H10.077C15.019.153,15.9.383,19.847,2.95Zm0,34.9c0-10.23-.115-20.038.077-29.847a4.864,4.864,0,0,0-2.989-4.943,7.033,7.033,0,0,0-3.027-1.073c-4.1-.115-8.238-.038-12.337-.038v33.3C7.663,36.054,13.985,33.831,19.847,37.854ZM24.713,10.92l-.46.575c.46.307.881.843,1.341.881,2.8.077,5.594,0,8.429.038,1.264,0,1.341-.536.92-1.494Zm10.153,6.015.46-.575c-.46-.307-.881-.843-1.341-.843-2.8-.077-5.594,0-8.429-.038-1.3,0-1.341.536-.881,1.494C28.123,16.935,31.494,16.935,34.866,16.935Zm.421,3.716-.46-.46H24.559c-.115.192-.192.345-.307.536.46.307.881.843,1.341.843,2.8.077,5.632.077,8.429,0C34.444,21.533,34.866,20.958,35.287,20.651Zm-.46,5.517a3.309,3.309,0,0,1,.5-.536c-.421-.307-.881-.881-1.341-.881-2.8-.077-5.594,0-8.429-.038-1.226,0-1.341.5-.958,1.494C28.084,26.169,31.456,26.169,34.828,26.169Z"/>
</svg>
