<svg xmlns="http://www.w3.org/2000/svg" viewBox="0 0 29.329 40">
  <defs>
    <style>
      .cls-1 {
        fill: #004760;
      }
    </style>
  </defs>
  <g id="recommendations" transform="translate(0.019 0.028)">
    <path id="Path_826" data-name="Path 826" class="cls-1" d="M6.63,39.972c.332-3.654.6-6.942,1-10.23A2.825,2.825,0,0,0,6.3,26.62,14.46,14.46,0,0,1,.95,9.448,14.642,14.642,0,0,1,29.15,12.5a14.13,14.13,0,0,1-6.41,14.316,2.071,2.071,0,0,0-1.063,2.292c.332,2.956.6,5.945.864,8.9.033.531.066,1.063.1,1.86-2.391-1.594-4.584-2.956-6.676-4.451a1.941,1.941,0,0,0-2.624.033C11.247,36.983,9.055,38.344,6.63,39.972ZM27.888,14.6A13.22,13.22,0,1,0,14.635,27.882,13.24,13.24,0,0,0,27.888,14.6Z" transform="translate(0 0)"/>
    <path id="Path_827" data-name="Path 827" class="cls-1" d="M28.516,39.062c-1.528-1.495-3.122-3.089-4.816-4.75.531-.5,1.1-1.063,1.893-1.86.864,1.129,1.694,2.159,2.524,3.255,2.624-2.624,4.916-4.982,7.34-7.407.8.9,1.329,1.528,1.794,2.026Z" transform="translate(-15.841 -18.919)"/>
  </g>
</svg>
