<svg xmlns="http://www.w3.org/2000/svg" viewBox="0 0 31.938 40">
  <defs>
    <style>
      .cls-1 {
        fill: #004760;
      }
    </style>
  </defs>
  <g id="search-documents" transform="translate(0 0.1)">
    <path id="Path_842" data-name="Path 842" class="cls-1" d="M31.49,38.58c-1.373-1.007-1.621-2.327-1.595-3.961.078-6.771.026-13.542.039-20.314a1.437,1.437,0,0,0-.471-1.137c-.837-.8-1.66-1.595-2.444-2.458a1.651,1.651,0,0,1-.418-1.02c-.026-2.98-.013-5.961-.026-8.941,0-.288-.026-.562-.039-.85Q13.281-.08,0-.087V34c0,.144.026.3.039.523H3.268v3.307c.353.013.654.039.954.039q12.059,0,24.1-.013a1.492,1.492,0,0,1,1.2.5c.5.536,1.059,1.033,1.582,1.542H31.5C32.052,39.351,32.118,39.037,31.49,38.58ZM3.856,3.3c-.17,0-.34.026-.562.039V33.194H1.32V1.233H25.268V8.972c-.314-.3-.523-.5-.719-.706-1.542-1.542-3.072-3.085-4.627-4.614a1.433,1.433,0,0,0-.837-.366Q11.477,3.305,3.856,3.3ZM28.614,35.534c-1.647-1.66-3.255-3.294-4.941-4.993a7.793,7.793,0,0,0,1.386-7.373,7.55,7.55,0,0,0-3.281-4.248A7.82,7.82,0,0,0,11.7,20.358,7.885,7.885,0,0,0,22.627,31.652c1.634,1.634,3.255,3.255,4.928,4.941-.222.013-.418.039-.627.039q-10.824,0-21.634.013c-.562,0-.745-.131-.745-.719q.039-15.353.026-30.667c0-.2.013-.379.026-.654H18.654v9.935h9.961ZM17.595,32.1a6.562,6.562,0,1,1,6.588-6.523A6.589,6.589,0,0,1,17.595,32.1Z"/>
    <path id="Path_843" data-name="Path 843" class="cls-1" d="M104.875,205.468h-3.712c-.444,0-.863-.065-.863-.641s.431-.627.876-.627h7.438c.458,0,.876.078.9.614.013.588-.431.654-.915.654Z" transform="translate(-87.189 -177.594)"/>
    <path id="Path_844" data-name="Path 844" class="cls-1" d="M102.739,174.89h-1.83c-.392,0-.693-.144-.719-.588-.026-.484.3-.654.706-.667,1.255-.013,2.523-.013,3.778,0,.405,0,.732.183.719.667s-.366.588-.771.588Z" transform="translate(-87.092 -151.016)"/>
  </g>
</svg>
