<svg xmlns="http://www.w3.org/2000/svg" viewBox="0 0 26.572 40">
  <defs>
    <style>
      .cls-1 {
        fill: #004760;
      }
    </style>
  </defs>
  <g id="text-page" transform="translate(0 -0.035)">
    <path id="Path_818" data-name="Path 818" class="cls-1" d="M0,40.035V.223H8.988c2.33,0,4.893-.566,6.891.266s3.4,3.062,5.06,4.694c1.631,1.6,3.262,3.162,4.793,4.827a3.04,3.04,0,0,1,.8,1.831c.067,9.154.033,18.275.033,27.429,0,.2-.033.433-.067.766ZM14.513,12.207V1.621H1.4V38.671H25.165v-26.5C21.637,12.207,18.208,12.207,14.513,12.207Z" transform="translate(0 0)"/>
    <path id="Path_820" data-name="Path 820" class="cls-1" d="M15.8,48.7H31.312c.4.865.266,1.3-.8,1.3-4.66-.033-9.321,0-13.981-.033-.366,0-.766-.5-1.132-.766C15.533,49,15.666,48.866,15.8,48.7Z" transform="translate(-10.274 -32.465)"/>
    <path id="Path_821" data-name="Path 821" class="cls-1" d="M15.8,56.7H31.312c.366.865.266,1.3-.8,1.3-4.66-.033-9.321,0-13.981-.033-.366,0-.766-.5-1.132-.766C15.533,57,15.666,56.866,15.8,56.7Z" transform="translate(-10.274 -37.802)"/>
    <path id="Path_822" data-name="Path 822" class="cls-1" d="M15.3,65.3c.333-.266.666-.766,1.032-.8,2.1-.067,4.228-.067,6.325,0,.333,0,.632.533.965.832a3.538,3.538,0,0,1-.3.366h-7.59A1.629,1.629,0,0,1,15.3,65.3Z" transform="translate(-10.207 -42.972)"/>
  </g>
</svg>
